<svg width="15" height="16" viewBox="0 0 15 16" fill="none" xmlns="http://www.w3.org/2000/svg">
<g clip-path="url(#clip0)">
<path d="M7.5 15.5439C11.6421 15.5439 15 12.1861 15 8.04395C15 3.90181 11.6421 0.543945 7.5 0.543945C3.35786 0.543945 0 3.90181 0 8.04395C0 12.1861 3.35786 15.5439 7.5 15.5439Z" fill="#F0F0F0"/>
<path d="M7.17395 8.04418H15C15 7.36725 14.9098 6.71146 14.7417 6.08765H7.17395V8.04418Z" fill="#D80027"/>
<path d="M7.17395 4.13109H13.8992C13.4401 3.38191 12.8531 2.71972 12.1687 2.17456H7.17395V4.13109Z" fill="#D80027"/>
<path d="M7.50006 15.5442C9.26517 15.5442 10.8875 14.9342 12.1687 13.9138H2.83142C4.11257 14.9342 5.73495 15.5442 7.50006 15.5442Z" fill="#D80027"/>
<path d="M1.10085 11.9573H13.8993C14.2678 11.3558 14.5537 10.6984 14.7417 10.0007H0.258423C0.446421 10.6984 0.732271 11.3558 1.10085 11.9573Z" fill="#D80027"/>
<path d="M3.47414 1.71518H4.15761L3.52187 2.17704L3.76471 2.92438L3.12899 2.46251L2.49328 2.92438L2.70305 2.27876C2.1433 2.74502 1.6527 3.29129 1.2484 3.89996H1.46739L1.06271 4.19395C0.999668 4.29913 0.939199 4.40598 0.88125 4.5144L1.07449 5.10916L0.713965 4.84722C0.624346 5.03709 0.542373 5.23124 0.468691 5.42943L0.681592 6.08475H1.46739L0.83165 6.54661L1.07449 7.29395L0.438779 6.83208L0.0579785 7.10876C0.0198633 7.41515 0 7.72722 0 8.04395H7.5C7.5 3.90184 7.5 3.41352 7.5 0.543945C6.0184 0.543945 4.63726 0.97373 3.47414 1.71518ZM3.76471 7.29395L3.12899 6.83208L2.49328 7.29395L2.73612 6.54661L2.10038 6.08475H2.88618L3.12899 5.33741L3.37181 6.08475H4.15761L3.52187 6.54661L3.76471 7.29395ZM3.52187 4.36183L3.76471 5.10916L3.12899 4.64729L2.49328 5.10916L2.73612 4.36183L2.10038 3.89996H2.88618L3.12899 3.15263L3.37181 3.89996H4.15761L3.52187 4.36183ZM6.45492 7.29395L5.81921 6.83208L5.1835 7.29395L5.42634 6.54661L4.7906 6.08475H5.5764L5.81921 5.33741L6.06202 6.08475H6.84782L6.21208 6.54661L6.45492 7.29395ZM6.21208 4.36183L6.45492 5.10916L5.81921 4.64729L5.1835 5.10916L5.42634 4.36183L4.7906 3.89996H5.5764L5.81921 3.15263L6.06202 3.89996H6.84782L6.21208 4.36183ZM6.21208 2.17704L6.45492 2.92438L5.81921 2.46251L5.1835 2.92438L5.42634 2.17704L4.7906 1.71518H5.5764L5.81921 0.967842L6.06202 1.71518H6.84782L6.21208 2.17704Z" fill="#0052B4"/>
</g>
<defs>
<clipPath id="clip0">
<rect width="15" height="15" fill="white" transform="translate(0 0.543945)"/>
</clipPath>
</defs>
</svg>
