<svg width="20" height="20" viewBox="0 0 20 20" fill="none" xmlns="http://www.w3.org/2000/svg">
<g clip-path="url(#clip0)">
<path d="M10.0008 20.0001C15.5234 20.0001 20.0004 15.5232 20.0004 10.0006C20.0004 4.47794 15.5234 0.000976562 10.0008 0.000976562C4.47818 0.000976562 0.0012207 4.47794 0.0012207 10.0006C0.0012207 15.5232 4.47818 20.0001 10.0008 20.0001Z" fill="white"/>
<path d="M19.4284 6.66602H13.2671C13.5347 8.80218 13.5363 11.1559 13.2723 13.2947H19.4416C19.8017 12.2629 19.9997 11.1548 19.9997 10.0003C19.9999 8.8306 19.7973 7.70891 19.4284 6.66602Z" fill="#3757A6"/>
<path d="M13.2672 6.66578H19.4284C19.4275 6.66262 19.4265 6.65996 19.4252 6.65709C18.1455 3.04845 14.8534 0.393448 10.8979 0.0410156C12.4288 0.880063 12.8759 3.5384 13.2672 6.66578Z" fill="#EEEEEE"/>
<path d="M10.8982 19.9584C14.8607 19.6053 18.1574 16.9412 19.4322 13.3228C19.4356 13.3132 19.4384 13.3037 19.4419 13.2944H13.2725C12.8842 16.4387 12.4351 19.1158 10.8982 19.9584Z" fill="#E73B36"/>
<path d="M0 9.99981C0 11.1545 0.19832 12.2624 0.558141 13.2943H13.787C14.0513 11.1553 14.0494 8.8017 13.7821 6.66553H0.571441C0.202584 7.70847 0 8.83016 0 9.99981Z" fill="#3757A6"/>
<path d="M0.574578 6.65711C0.573649 6.65994 0.572678 6.66264 0.571411 6.66581H13.7821C13.3906 3.53838 12.4287 0.880088 10.898 0.0410404C10.602 0.0148201 10.3026 4.81247e-10 9.9998 4.81247e-10C5.64965 -4.22221e-05 1.95032 2.77825 0.574578 6.65711Z" fill="#EEEEEE"/>
<path d="M13.787 13.2944H0.558105C0.561441 13.3038 0.564566 13.3132 0.567732 13.3228C1.93798 17.2116 5.64264 19.9998 9.99976 19.9998C10.3026 19.9998 10.602 19.9849 10.898 19.9584C12.4351 19.1159 13.3987 16.4388 13.787 13.2944Z" fill="#E73B36"/>
</g>
<defs>
<clipPath id="clip0">
<rect width="20" height="20" fill="white"/>
</clipPath>
</defs>
</svg>
